<?xml version="1.0" standalone="no"?>
<!DOCTYPE svg PUBLIC "-//W3C//DTD SVG 20010904//EN"
 "http://www.w3.org/TR/2001/REC-SVG-20010904/DTD/svg10.dtd">
<svg version="1.0" xmlns="http://www.w3.org/2000/svg"
 width="512.000000pt" height="512.000000pt" viewBox="0 0 512.000000 512.000000"
 preserveAspectRatio="xMidYMid meet">

<g transform="translate(0.000000,512.000000) scale(0.100000,-0.100000)"
fill="#000000" stroke="none">
<path d="M1196 4397 c-18 -13 -74 -253 -207 -887 -22 -107 -65 -307 -95 -445
-30 -137 -83 -378 -117 -535 l-62 -285 0 -605 0 -605 32 -67 c54 -116 143
-195 268 -239 56 -20 82 -20 1544 -20 1598 1 1518 -2 1621 51 55 28 135 103
166 155 13 23 33 68 44 100 19 55 20 84 20 622 l0 564 -46 217 c-25 119 -74
350 -110 512 -35 162 -88 412 -118 555 -144 687 -193 898 -212 912 -27 19
-2701 19 -2728 0z m2650 -277 c18 -80 33 -151 34 -157 0 -10 -270 -13 -1320
-13 -792 0 -1320 4 -1320 9 0 10 59 279 65 299 4 10 260 12 1257 10 l1252 -3
32 -145z m97 -442 c14 -68 28 -138 31 -155 l6 -33 -1421 0 c-1348 0 -1420 1
-1415 18 3 9 7 35 11 57 3 22 15 84 27 138 l22 97 1356 0 1357 0 26 -122z
m121 -570 c27 -125 46 -231 42 -235 -7 -8 -3071 -13 -3093 -5 -7 2 -11 7 -9
11 2 3 25 103 50 221 26 118 49 221 51 228 3 10 300 12 1457 10 l1452 -3 50
-227z m116 -558 c21 -91 44 -195 53 -232 l15 -68 -1684 0 c-1494 0 -1684 2
-1684 15 0 15 86 417 95 442 3 10 354 12 1587 10 l1582 -2 36 -165z m88 -958
l-3 -497 -33 -67 c-37 -75 -72 -110 -152 -147 l-55 -26 -1465 0 -1465 0 -55
26 c-80 37 -115 72 -152 147 l-33 67 -3 497 -3 498 1711 0 1711 0 -3 -498z"/>
<path d="M1812 1757 c-21 -23 -22 -30 -22 -283 0 -259 0 -261 23 -282 l23 -22
725 0 726 0 21 23 c21 23 22 30 22 283 0 259 0 261 -23 282 l-23 22 -725 0
-726 0 -21 -23z"/>
</g>
</svg>
